<svg width="50" height="50" viewBox="0 0 50 50" fill="none" xmlns="http://www.w3.org/2000/svg">
<g id="facebook">
<path id="Shape" fill-rule="evenodd" clip-rule="evenodd" d="M26.3442 37.1106H21.3559V25.3478H18.8633V21.2947H21.3559V18.8614C21.3559 15.555 22.7626 13.5879 26.7618 13.5879H30.0904V17.6425H28.01C26.4532 17.6425 26.3503 18.2089 26.3503 19.2659L26.3435 21.2947H30.1133L29.6721 25.3478H26.3435V37.1106H26.3442Z" fill="#FA783C"/>
<path id="oval copy 2" fill-rule="evenodd" clip-rule="evenodd" d="M25.5 0.0273438C38.749 0.0273438 49.5 10.7784 49.5 24.0238C49.5 37.2763 38.749 48.0238 25.5 48.0238C12.251 48.0238 1.5 37.2763 1.5 24.0238C1.5 10.7784 12.251 0.0273438 25.5 0.0273438ZM25.5 2.02557C13.3551 2.02557 3.5 11.8814 3.5 24.0239C3.5 36.173 13.3551 46.0256 25.5 46.0256C37.6449 46.0256 47.5 36.173 47.5 24.0239C47.5 11.8814 37.6449 2.02557 25.5 2.02557Z" fill="#FA783C"/>
</g>
</svg>
