<svg width="50" height="50" viewBox="0 0 50 50" fill="none" xmlns="http://www.w3.org/2000/svg">
<g id="linkedin">
<path id="Shape" fill-rule="evenodd" clip-rule="evenodd" d="M15.9046 20.1468H20.0575V34.0411H15.9046V20.1468ZM17.8752 18.4088H17.8451C16.3418 18.4088 15.3672 17.3467 15.3672 16.0016C15.3672 14.6291 16.3706 13.5879 17.904 13.5879C19.4361 13.5879 20.3782 14.6265 20.4083 15.9977C20.4083 17.3427 19.4361 18.4088 17.8752 18.4088ZM36.674 34.0424H31.9649V26.851C31.9649 24.969 31.2283 23.6855 29.6085 23.6855C28.3695 23.6855 27.6805 24.5512 27.3598 25.3881C27.2395 25.6867 27.2583 26.1045 27.2583 26.5236V34.0424H22.5931C22.5931 34.0424 22.6532 21.3045 22.5931 20.1468H27.2583V22.3274C27.5339 21.3739 29.0247 20.0132 31.4037 20.0132C34.3552 20.0132 36.674 22.013 36.674 26.3153V34.0424Z" fill="#FA783C"/>
<path id="oval copy 3" fill-rule="evenodd" clip-rule="evenodd" d="M24.5 0.0273438C37.749 0.0273438 48.5 10.7784 48.5 24.0238C48.5 37.2763 37.749 48.0238 24.5 48.0238C11.251 48.0238 0.5 37.2763 0.5 24.0238C0.5 10.7784 11.251 0.0273438 24.5 0.0273438ZM24.5 2.02557C12.3551 2.02557 2.5 11.8814 2.5 24.0239C2.5 36.173 12.3551 46.0256 24.5 46.0256C36.6449 46.0256 46.5 36.173 46.5 24.0239C46.5 11.8814 36.6449 2.02557 24.5 2.02557Z" fill="#FA783C"/>
</g>
</svg>
