<svg width="720" height="106" viewBox="0 0 720 106" fill="none" xmlns="http://www.w3.org/2000/svg">
<path d="M20.5563 82.9945C20.5563 80.2954 20.0251 77.6238 18.9904 75.1289C17.9557 72.634 16.4451 70.3654 14.5361 68.4611C12.6271 66.5513 10.3584 65.0389 7.8684 64.0067C5.37287 62.9745 2.70027 62.4391 0 62.4391V83H20.5563V82.9945Z" fill="#FFC800"/>
<path d="M0 20.561C5.45033 20.561 10.6793 18.3917 14.5361 14.539C18.3928 10.6807 20.5563 5.45352 20.5563 0.0055542H0V20.5665V20.561Z" fill="#FFC800"/>
<path d="M62.4437 82.9945C62.4437 80.2954 62.9749 77.6238 64.0096 75.1289C65.0443 72.634 66.5549 70.3654 68.4639 68.4611C70.3729 66.5513 72.6416 65.0389 75.1316 64.0067C77.6271 62.9745 80.2997 62.4391 83 62.4391V83H62.4437V82.9945Z" fill="#FFC800"/>
<path d="M83 20.561C77.5497 20.561 72.3207 18.3917 68.4639 14.539C64.6072 10.6862 62.4437 5.45352 62.4437 0.0055542H83V20.5665V20.561Z" fill="#FFC800"/>
<path d="M34.3011 48.7005C31.54 45.9406 28.4524 43.5175 25.1158 41.4973C17.5407 46.0676 8.85333 48.4797 0 48.4631C4.5318 48.4631 9.02487 49.3463 13.2136 51.0795C17.4023 52.8127 21.2093 55.3573 24.4186 58.5587C27.6279 61.7601 30.1677 65.5743 31.8997 69.7637C33.6316 73.9532 34.5225 78.4462 34.5169 82.9779C34.5059 74.1298 36.9129 65.4418 41.4834 57.8632C39.4637 54.5293 37.0567 51.4548 34.3011 48.7005Z" fill="#FFC800"/>
<path opacity="0.75" d="M34.3011 34.2996C37.0623 31.5397 39.4803 28.4542 41.5 25.1203C36.9295 17.5417 34.5169 8.85366 34.5335 0.0055542C34.5391 4.53724 33.6482 9.03029 31.9163 13.2198C30.1843 17.4092 27.639 21.2178 24.4352 24.4248C21.2314 27.6317 17.4245 30.1708 13.2302 31.904C9.04147 33.6372 4.5484 34.5259 0.0166016 34.5204C8.8644 34.5093 17.5517 36.9159 25.1324 41.4862C28.469 39.4715 31.5511 37.0539 34.3067 34.2996H34.3011Z" fill="#FA4628"/>
<path d="M0 34.5148V48.4521C8.8478 48.4686 17.5351 46.0565 25.1158 41.4862C17.5351 36.9158 8.85333 34.5037 0 34.5203V34.5148Z" fill="#FA4628"/>
<path opacity="0.75" d="M48.6989 48.7005C45.9377 51.4603 43.5197 54.5403 41.5 57.8798C46.0705 65.4583 48.4831 74.1464 48.4665 82.9945C48.4609 78.4628 49.3518 73.9697 51.0837 69.7803C52.8157 65.5908 55.361 61.7822 58.5648 58.5752C61.7686 55.3683 65.5755 52.8292 69.7698 51.096C73.9585 49.3628 78.4516 48.4742 82.9834 48.4797C74.1356 48.4962 65.4483 46.0841 57.8676 41.5138C54.531 43.534 51.4545 45.9461 48.6933 48.7005H48.6989Z" fill="#FA4628"/>
<path d="M34.5169 82.9945H48.4886C48.4996 74.1464 46.0926 65.4583 41.5221 57.8798C36.9405 65.4583 34.5169 74.1409 34.5224 82.9945H34.5169Z" fill="#FA4628"/>
<path d="M48.6989 34.2996C51.46 37.0594 54.5421 39.4771 57.8842 41.4973C65.4649 36.927 74.1467 34.5148 83 34.5314C78.4682 34.5314 73.9751 33.6482 69.7864 31.9151C65.5977 30.1819 61.7907 27.6373 58.5814 24.4358C55.3721 21.2344 52.8323 17.4203 51.1003 13.2308C49.3684 9.04134 48.4775 4.54829 48.4831 0.0166016C48.4941 8.86471 46.0871 17.5527 41.5166 25.1313C43.5363 28.4652 45.9488 31.5452 48.6989 34.2996Z" fill="#FFC800"/>
<path d="M48.4831 0H34.5114C34.5003 8.84811 36.9073 17.5361 41.4779 25.1147C46.0595 17.5361 48.4831 8.85363 48.4775 0H48.4831Z" fill="#FA4628"/>
<path d="M57.8842 41.4973C65.4593 46.0676 74.1467 48.4797 83 48.4631V34.5259C74.1522 34.5148 65.4649 36.9214 57.8842 41.4917V41.4973Z" fill="#FA4628"/>
<path d="M232.13 26.4864H248.07V76.6893H232.13V26.4864ZM233.45 3.94258C235.33 2.37092 237.7 1.5 240.15 1.5C242.6 1.5 244.97 2.36091 246.85 3.94258C247.68 4.75343 248.34 5.72446 248.8 6.79559C249.25 7.86671 249.49 9.01793 249.49 10.1792C249.49 11.3404 249.27 12.4916 248.82 13.5727C248.38 14.6439 247.72 15.6249 246.9 16.4458C245.17 18.0775 242.92 18.8883 240.15 18.8883C237.38 18.8883 235.13 18.0775 233.4 16.4458C232.58 15.6249 231.92 14.6539 231.48 13.5727C231.04 12.5016 230.81 11.3504 230.81 10.1792C230.81 9.01793 231.05 7.86671 231.5 6.79559C231.95 5.72446 232.61 4.75343 233.45 3.94258Z" fill="black"/>
<path d="M275.33 58.9506C277.48 61.1529 280.32 62.2541 283.86 62.2541C287.4 62.2541 290.24 61.1729 292.39 59.0006C294.54 56.8484 295.62 53.9653 295.64 50.3615C295.66 46.7577 294.59 43.8847 292.44 41.7524C290.29 39.6202 287.42 38.5491 283.84 38.519C280.32 38.519 277.47 39.6002 275.31 41.7524C273.15 43.9047 272.07 46.7777 272.08 50.3615C272.08 53.8652 273.16 56.7282 275.33 58.9506ZM269.55 102.897C265.76 101.345 262.49 98.7325 260.16 95.359C257.93 92.0154 256.78 88.0713 256.86 84.0571C256.85 83.2462 256.88 82.4253 256.96 81.6245H272.29C272.16 84.948 273.09 87.5207 275.08 89.3426C277.07 91.1646 279.97 92.0855 283.76 92.0855C287.14 92.0855 289.88 91.3247 291.98 89.8031C292.97 89.1424 293.77 88.2315 294.32 87.1803C294.87 86.1192 295.15 84.948 295.12 83.7567C295.12 81.184 294.16 79.2019 292.23 77.8105C290.3 76.419 287.54 75.7283 283.96 75.7283C278.41 75.7283 273.55 74.6772 269.39 72.5749C265.38 70.6129 262.02 67.5296 259.74 63.6856C257.47 59.8515 256.34 55.3968 256.34 50.3215C256.26 45.7266 257.48 41.2019 259.84 37.2577C262.19 33.4237 265.56 30.3204 269.59 28.3183C274.02 26.126 278.91 25.0248 283.86 25.1149C287.78 25.0748 291.67 25.9057 295.23 27.5575L301.14 20.2397L312.81 28.6686L306.11 36.4969C309.47 40.3009 311.28 45.2361 311.18 50.3115C311.21 53.9253 310.28 57.489 308.49 60.6223C306.66 63.8057 304.06 66.4785 300.93 68.4005C304.1 69.782 306.82 72.0144 308.79 74.8573C310.67 77.6603 311.65 80.9838 311.59 84.3574C311.66 88.3416 310.45 92.2357 308.14 95.4891C305.84 98.7225 302.59 101.195 298.39 102.907C294.2 104.629 289.32 105.49 283.77 105.5C278.33 105.52 273.59 104.649 269.54 102.887L269.55 102.897Z" fill="black"/>
<path d="M321.73 5.55426H337.67V31.9521C341.53 27.5475 346.63 25.3451 353 25.3451C359.37 25.3451 364.05 27.4073 367.67 31.5417C371.29 35.676 373.1 41.2619 373.1 48.3094V76.6693H357.16V49.2303C357.16 45.9769 356.36 43.4442 354.77 41.6123C353.18 39.7804 350.96 38.8694 348.12 38.8694C345.01 38.8694 342.49 39.9205 340.56 42.0227C338.63 44.1249 337.66 46.8678 337.67 50.2514V76.6793H321.73V5.55426Z" fill="black"/>
<path d="M427.13 71.3036L433.22 60.322C435.86 61.8937 438.71 63.0549 441.7 63.7757C444.83 64.5765 448.05 64.987 451.29 64.997C455.69 64.997 457.89 63.8157 457.89 61.4432C457.89 60.8526 457.73 60.282 457.4 59.7915C457.07 59.301 456.61 58.9206 456.06 58.7003C454.84 58.0897 452.81 57.6793 449.97 57.479C443.61 57.1387 438.55 55.547 434.79 52.704C431.03 49.861 429.16 46.1371 429.16 41.5222C429.1 39.1798 429.62 36.8573 430.68 34.7751C431.74 32.6929 433.31 30.901 435.25 29.5796C439.31 26.6265 444.8 25.155 451.7 25.155C455.49 25.1349 459.26 25.6154 462.92 26.5765C466.17 27.3973 469.28 28.7287 472.11 30.5406L465.93 41.2119C462.14 39.0596 457.64 37.9785 452.43 37.9785C447.22 37.9785 444.71 39.1998 444.72 41.6423C444.72 42.1429 444.87 42.6334 445.15 43.0538C445.43 43.4743 445.83 43.7946 446.29 43.9848C447.34 44.5254 449.11 44.9358 451.62 45.2061C458.79 45.7467 464.25 47.3784 468.02 50.0913C471.78 52.8041 473.66 56.5981 473.65 61.4733C473.65 66.6287 471.59 70.673 467.46 73.6161C463.33 76.5592 457.61 78.0307 450.31 78.0307C441.43 78.0207 433.71 75.7784 427.15 71.3036H427.13Z" fill="black"/>
<path d="M582.76 47.2182C582.56 44.3051 581.48 42.0428 579.53 40.411C577.58 38.7793 574.99 37.9685 571.76 37.9785C568.58 37.9785 565.99 38.7893 563.99 40.411C561.99 42.0328 560.86 44.3051 560.59 47.2182H582.75H582.76ZM557.58 74.7072C553.47 72.7151 550.04 69.5518 547.73 65.6176C545.43 61.6735 544.28 57.0286 544.28 51.6929C544.19 46.8979 545.36 42.1729 547.68 37.9685C549.89 34.0243 553.19 30.8009 557.17 28.6687C561.23 26.4663 565.94 25.3652 571.29 25.3652C576.64 25.3652 581.51 26.3963 585.5 28.4684C589.36 30.4105 592.55 33.4537 594.69 37.2077C596.82 40.9716 597.88 45.3563 597.89 50.3715C597.86 52.3837 597.69 54.3858 597.38 56.3679H560.53C560.76 57.6392 561.25 58.8505 561.97 59.9216C562.69 60.9928 563.61 61.9137 564.7 62.6145C567 64.2061 569.94 65.007 573.53 65.007C576.01 65.007 578.48 64.6366 580.84 63.8858C583.05 63.2251 585.11 62.154 586.93 60.7425L595.26 69.6819C592.33 72.3748 588.9 74.4469 585.16 75.7783C581.17 77.2199 576.96 77.9506 572.72 77.9306C566.9 77.9206 561.86 76.8395 557.59 74.7072H557.58Z" fill="black"/>
<path d="M642.55 47.2182C642.35 44.3051 641.28 42.0428 639.36 40.411C637.43 38.7793 634.84 37.9685 631.59 37.9785C628.41 37.9785 625.82 38.7893 623.82 40.411C621.82 42.0328 620.69 44.3051 620.42 47.2182H642.55ZM617.38 74.7072C613.27 72.7151 609.84 69.5518 607.53 65.6176C605.23 61.6735 604.08 57.0286 604.08 51.6929C603.99 46.8979 605.16 42.1629 607.48 37.9685C609.69 34.0243 612.99 30.8009 616.97 28.6687C621.03 26.4663 625.74 25.3652 631.08 25.3652C636.42 25.3652 641.3 26.3963 645.29 28.4684C649.15 30.4105 652.35 33.4537 654.48 37.2077C656.61 40.9716 657.67 45.3563 657.67 50.3715C657.64 52.3837 657.47 54.3858 657.16 56.3679H620.31C620.54 57.6392 621.03 58.8505 621.75 59.9316C622.47 61.0128 623.4 61.9237 624.49 62.6345C626.79 64.2262 629.73 65.027 633.32 65.027C635.8 65.027 638.27 64.6566 640.63 63.9058C642.84 63.2451 644.9 62.174 646.72 60.7625L655.04 69.7019C652.12 72.3948 648.68 74.467 644.94 75.7984C640.95 77.2399 636.75 77.9707 632.51 77.9506C626.68 77.9306 621.64 76.8495 617.37 74.7172L617.38 74.7072Z" fill="black"/>
<path d="M155.66 60.7825C153.43 63.115 150.55 64.2862 147.03 64.2862C143.51 64.2862 140.64 63.105 138.43 60.7325C136.23 58.36 135.13 55.3167 135.13 51.5828C135.13 47.8489 136.23 44.8057 138.43 42.4332C140.63 40.0607 143.49 38.8794 147.03 38.8794C150.57 38.8794 153.44 40.0406 155.66 42.3831C157.9 44.7156 159.01 47.7788 159.01 51.5828C159.01 55.3768 157.88 58.44 155.64 60.7825H155.66ZM171.79 38.0185C169.88 34.1845 166.93 30.9811 163.26 28.7687C159.48 26.5364 155.16 25.3952 150.77 25.4653C144.61 25.4653 139.43 27.3973 135.24 31.2614V5.54425H119.3V76.6893H135.14V71.694C139.26 75.6782 144.46 77.7004 150.78 77.7004C155.17 77.7704 159.49 76.6292 163.27 74.3969C166.93 72.1845 169.89 68.9812 171.8 65.1471C173.81 60.9026 174.85 56.2778 174.85 51.5828C174.85 46.8879 173.81 42.253 171.8 38.0185H171.79Z" fill="black"/>
<path d="M219.5 26.6365C217.29 25.8056 214.96 25.3752 212.6 25.3652C207.37 25.3652 203.18 27.4874 200.01 31.6718V26.4763H184.07V76.6793H200.01V52.2836C200.01 48.0891 200.99 44.9058 202.96 42.7335C204.92 40.5612 207.6 39.4901 210.98 39.5001C212.29 39.5001 213.59 39.7003 214.83 40.1107C216.22 40.6012 217.55 41.2419 218.79 42.0428L225.49 30.3604C223.77 28.7087 221.73 27.4374 219.5 26.6165V26.6365Z" fill="black"/>
<path d="M416.55 62.7646C414.76 63.6856 412.78 64.1761 410.77 64.1861C410.01 64.2262 409.25 64.1161 408.54 63.8658C407.83 63.6155 407.17 63.2251 406.6 62.7146C405.59 61.7335 405.08 60.2219 405.08 58.1898V39.1898H417.57V26.4864H405.08V12.2614H389.24V26.4864H380.71V39.1898H389.24V58.1898C389.24 65.037 390.83 69.9922 394.01 73.0755C397.19 76.1588 401.52 77.7004 407.01 77.7004C411.61 77.7705 416.17 76.7694 420.31 74.7473L416.55 62.7546V62.7646Z" fill="black"/>
<path d="M518.72 60.7825C516.48 63.115 513.61 64.2862 510.09 64.2862C506.57 64.2862 503.71 63.105 501.49 60.7325C499.29 58.36 498.19 55.3167 498.19 51.5828C498.19 47.8589 499.29 44.8057 501.49 42.4332C503.69 40.0607 506.56 38.8794 510.09 38.8794C513.62 38.8794 516.5 40.0406 518.72 42.3831C520.95 44.7156 522.07 47.7788 522.07 51.5828C522.07 55.3768 520.95 58.44 518.7 60.7825H518.72ZM534.85 38.0185C532.94 34.1845 529.98 30.9811 526.32 28.7687C522.54 26.5364 518.22 25.3952 513.83 25.4653C507.47 25.4653 502.26 27.4474 498.2 31.3815V26.4863H482.36V98.4422H498.3V71.8141C502.43 75.7383 507.6 77.7104 513.83 77.7304C518.22 77.8005 522.54 76.6593 526.32 74.4269C529.98 72.2146 532.94 69.0112 534.85 65.1771C536.85 60.9327 537.89 56.3078 537.89 51.6128C537.89 46.9179 536.85 42.293 534.85 38.0485V38.0185Z" fill="black"/>
<path d="M700.22 60.7825C697.98 63.115 695.11 64.2862 691.59 64.2862C688.07 64.2862 685.2 63.105 682.99 60.7325C680.79 58.36 679.69 55.3167 679.69 51.5828C679.69 47.8489 680.79 44.8057 682.99 42.4332C685.19 40.0607 688.06 38.8794 691.59 38.8794C695.12 38.8794 698 40.0406 700.22 42.3831C701.92 44.185 703.02 46.4674 703.36 48.92V54.2356C703.01 56.6882 701.92 58.9706 700.22 60.7725V60.7825ZM703.36 5.54425V31.4616C701.38 29.5095 699.01 28.0079 696.4 27.0469C693.56 25.9758 690.55 25.4452 687.52 25.4753C683.21 25.3952 678.95 26.5064 675.24 28.7087C671.62 30.911 668.72 34.1044 666.87 37.9084C664.87 41.8525 663.87 46.4073 663.87 51.5728C663.87 56.7382 664.87 61.293 666.87 65.2372C668.72 69.0412 671.63 72.2346 675.24 74.4369C678.95 76.6392 683.21 77.7704 687.52 77.6903C690.94 77.7404 694.34 77.0397 697.47 75.6582C699.67 74.6772 701.66 73.2857 703.36 71.5839V76.6793H719.3V5.54425H703.36Z" fill="black"/>
</svg>
