<svg width="19" height="21" viewBox="0 0 19 21" fill="none" xmlns="http://www.w3.org/2000/svg">
<g opacity="0.7" clipPath="url(#clip0_763_3832)">
<path d="M0.5 1.5166H4.32127L6.54322 13.3384C6.68972 14.1097 7.31235 14.6549 8.03266 14.6549H15.0281C15.724 14.6549 16.3344 14.1363 16.5054 13.4049L18.2024 6.05118H5.18807M8.71633 19.123C8.71633 19.8544 8.16695 20.4528 7.49548 20.4528C6.82401 20.4528 6.27463 19.8544 6.27463 19.123C6.27463 18.3916 6.82401 17.7932 7.49548 17.7932C8.16695 17.7932 8.71633 18.3916 8.71633 19.123ZM15.9071 17.7932C15.2357 17.7932 14.6863 18.3916 14.6863 19.123C14.6863 19.8544 15.2357 20.4528 15.9071 20.4528C16.5786 20.4528 17.128 19.8544 17.128 19.123C17.128 18.3916 16.5786 17.7932 15.9071 17.7932Z" stroke="black" strokeLinejoin="round"/>
</g>
<defs>
<clipPath id="clip0_763_3832">
<rect width="18.2029" height="20" fill="white" transform="translate(0.5 0.984375)"/>
</clipPath>
</defs>
</svg>
