<svg width="50" height="50" viewBox="0 0 50 50" fill="none" xmlns="http://www.w3.org/2000/svg">
<g id="twitter">
<path id="Shape" fill-rule="evenodd" clip-rule="evenodd" d="M34.3101 16.5035C35.3978 15.8171 36.2324 14.7287 36.6241 13.4322C35.6057 14.0693 34.4803 14.5301 33.2796 14.7795C32.3214 13.6991 30.952 13.0254 29.4365 13.0254C26.5289 13.0254 24.1727 15.512 24.1727 18.5786C24.1727 19.014 24.2163 19.4382 24.3067 19.8434C19.9318 19.6114 16.0525 17.4028 13.4537 14.0407C13.0003 14.8638 12.7411 15.8171 12.7411 16.834C12.7411 18.7598 13.6707 20.4599 15.0838 21.4577C14.2206 21.4291 13.4085 21.1765 12.6975 20.7634V20.8317C12.6975 23.5233 14.5113 25.7684 16.9233 26.2769C16.4803 26.4072 16.0163 26.4723 15.5342 26.4723C15.1953 26.4723 14.8638 26.4389 14.5445 26.3738C15.2134 28.5792 17.1583 30.1872 19.4633 30.2301C17.6599 31.7205 15.3896 32.6071 12.9234 32.6071C12.4986 32.6071 12.0783 32.5832 11.667 32.5308C13.9976 34.1054 16.7651 35.0254 19.739 35.0254C29.4259 35.0254 34.7198 26.5629 34.7198 19.2237C34.7198 18.9822 34.7168 18.7423 34.7063 18.5055C35.7352 17.7222 36.6301 16.7434 37.3337 15.6296C36.3891 16.0713 35.3737 16.37 34.3101 16.5035Z" fill="#FA783C"/>
<path id="oval copy" fill-rule="evenodd" clip-rule="evenodd" d="M24.5 0.0273438C37.749 0.0273438 48.5 10.7784 48.5 24.0238C48.5 37.2763 37.749 48.0238 24.5 48.0238C11.251 48.0238 0.5 37.2763 0.5 24.0238C0.5 10.7784 11.251 0.0273438 24.5 0.0273438ZM24.5 2.02557C12.3551 2.02557 2.5 11.8814 2.5 24.0239C2.5 36.173 12.3551 46.0256 24.5 46.0256C36.6449 46.0256 46.5 36.173 46.5 24.0239C46.5 11.8814 36.6449 2.02557 24.5 2.02557Z" fill="#FA783C"/>
</g>
</svg>
