<svg width="50" height="50" viewBox="0 0 50 50" fill="none" xmlns="http://www.w3.org/2000/svg">
<g id="youtube-play">
<path id="oval" fill-rule="evenodd" clip-rule="evenodd" d="M24.2109 0.0273438C37.4599 0.0273438 48.2109 10.7784 48.2109 24.0238C48.2109 37.2763 37.4599 48.0238 24.2109 48.0238C10.962 48.0238 0.210938 37.2763 0.210938 24.0238C0.210938 10.7784 10.962 0.0273438 24.2109 0.0273438ZM24.2109 2.02557C12.0661 2.02557 2.21094 11.8814 2.21094 24.0239C2.21094 36.173 12.0661 46.0256 24.2109 46.0256C36.3558 46.0256 46.2109 36.173 46.2109 24.0239C46.2109 11.8814 36.3558 2.02557 24.2109 2.02557Z" fill="#FA783C"/>
<path id="Shape" fill-rule="evenodd" clip-rule="evenodd" d="M37.2279 29.5851V19.9109C37.2279 19.9109 37.2279 15.248 32.743 15.248H15.6865C15.6865 15.248 11.2031 15.248 11.2031 19.9109V29.5851C11.2031 29.5851 11.2031 34.248 15.6865 34.248H32.743C32.743 34.248 37.2279 34.248 37.2279 29.5851ZM29.2681 24.7616L20.7482 29.9638V19.5578L29.2681 24.7616Z" fill="#FA783C"/>
</g>
</svg>
